<mxfile host="app.diagrams.net" modified="2023-09-01T01:02:18.721Z" agent="Mozilla/5.0 (Windows NT 10.0; Win64; x64) AppleWebKit/537.36 (KHTML, like Gecko) Chrome/116.0.0.0 Safari/537.36" etag="yPrh8rvv7_3U_XeveBsc" version="21.7.1" type="google">
  <diagram name="Page-1" id="HDVp-6DqwkPNFjOhexU3">
    <mxGraphModel grid="1" page="1" gridSize="10" guides="1" tooltips="1" connect="1" arrows="1" fold="1" pageScale="1" pageWidth="850" pageHeight="1100" math="0" shadow="0">
      <root>
        <mxCell id="0" />
        <mxCell id="1" parent="0" />
        <mxCell id="YQubhWQlvwatm8_Td63F-9" value="USER" style="whiteSpace=wrap;html=1;align=center;" vertex="1" parent="1">
          <mxGeometry x="320" y="100" width="100" height="40" as="geometry" />
        </mxCell>
        <mxCell id="YQubhWQlvwatm8_Td63F-11" value="MEMBERS" style="whiteSpace=wrap;html=1;align=center;" vertex="1" parent="1">
          <mxGeometry x="375" y="-520" width="100" height="40" as="geometry" />
        </mxCell>
        <mxCell id="YQubhWQlvwatm8_Td63F-12" value="PROJECT" style="whiteSpace=wrap;html=1;align=center;" vertex="1" parent="1">
          <mxGeometry x="1250" y="100" width="100" height="40" as="geometry" />
        </mxCell>
        <mxCell id="YQubhWQlvwatm8_Td63F-14" value="RESOURCE" style="whiteSpace=wrap;html=1;align=center;" vertex="1" parent="1">
          <mxGeometry x="1225" y="-520" width="100" height="40" as="geometry" />
        </mxCell>
        <mxCell id="YQubhWQlvwatm8_Td63F-15" value="STUDY_GROUP" style="whiteSpace=wrap;html=1;align=center;" vertex="1" parent="1">
          <mxGeometry x="760" y="-230" width="100" height="40" as="geometry" />
        </mxCell>
        <mxCell id="YQubhWQlvwatm8_Td63F-19" value="EMAIL" style="ellipse;whiteSpace=wrap;html=1;align=center;" vertex="1" parent="1">
          <mxGeometry x="110" y="350" width="100" height="40" as="geometry" />
        </mxCell>
        <mxCell id="YQubhWQlvwatm8_Td63F-20" value="NAME" style="ellipse;whiteSpace=wrap;html=1;align=center;" vertex="1" parent="1">
          <mxGeometry x="210" y="410" width="100" height="40" as="geometry" />
        </mxCell>
        <mxCell id="YQubhWQlvwatm8_Td63F-21" value="PHONENUMBER" style="ellipse;whiteSpace=wrap;html=1;align=center;" vertex="1" parent="1">
          <mxGeometry x="330" y="420" width="100" height="40" as="geometry" />
        </mxCell>
        <mxCell id="YQubhWQlvwatm8_Td63F-29" value="SRN" style="ellipse;whiteSpace=wrap;html=1;align=center;fontStyle=4;" vertex="1" parent="1">
          <mxGeometry x="20" y="280" width="100" height="50" as="geometry" />
        </mxCell>
        <mxCell id="YQubhWQlvwatm8_Td63F-33" value="" style="endArrow=none;html=1;rounded=0;entryX=0.34;entryY=0.983;entryDx=0;entryDy=0;entryPerimeter=0;exitX=0.5;exitY=0;exitDx=0;exitDy=0;" edge="1" parent="1" source="YQubhWQlvwatm8_Td63F-19" target="YQubhWQlvwatm8_Td63F-9">
          <mxGeometry width="50" height="50" relative="1" as="geometry">
            <mxPoint x="890" y="520" as="sourcePoint" />
            <mxPoint x="940" y="470" as="targetPoint" />
            <Array as="points" />
          </mxGeometry>
        </mxCell>
        <mxCell id="YQubhWQlvwatm8_Td63F-34" value="" style="endArrow=none;html=1;rounded=0;entryX=0;entryY=0.75;entryDx=0;entryDy=0;exitX=0.5;exitY=0;exitDx=0;exitDy=0;" edge="1" parent="1" source="YQubhWQlvwatm8_Td63F-29" target="YQubhWQlvwatm8_Td63F-9">
          <mxGeometry width="50" height="50" relative="1" as="geometry">
            <mxPoint x="70" y="270" as="sourcePoint" />
            <mxPoint x="150" y="150" as="targetPoint" />
            <Array as="points" />
          </mxGeometry>
        </mxCell>
        <mxCell id="YQubhWQlvwatm8_Td63F-35" value="" style="endArrow=none;html=1;rounded=0;exitX=0.5;exitY=0;exitDx=0;exitDy=0;entryX=0.75;entryY=1;entryDx=0;entryDy=0;" edge="1" parent="1" source="YQubhWQlvwatm8_Td63F-21" target="YQubhWQlvwatm8_Td63F-9">
          <mxGeometry width="50" height="50" relative="1" as="geometry">
            <mxPoint x="370" y="320" as="sourcePoint" />
            <mxPoint x="420" y="270" as="targetPoint" />
          </mxGeometry>
        </mxCell>
        <mxCell id="YQubhWQlvwatm8_Td63F-36" value="" style="endArrow=none;html=1;rounded=0;entryX=0.5;entryY=1;entryDx=0;entryDy=0;exitX=0.5;exitY=0;exitDx=0;exitDy=0;" edge="1" parent="1" source="YQubhWQlvwatm8_Td63F-20" target="YQubhWQlvwatm8_Td63F-9">
          <mxGeometry width="50" height="50" relative="1" as="geometry">
            <mxPoint x="270" y="350" as="sourcePoint" />
            <mxPoint x="320" y="300" as="targetPoint" />
          </mxGeometry>
        </mxCell>
        <mxCell id="YQubhWQlvwatm8_Td63F-39" value="description&amp;nbsp;" style="ellipse;whiteSpace=wrap;html=1;align=center;" vertex="1" parent="1">
          <mxGeometry x="1260" y="350" width="100" height="40" as="geometry" />
        </mxCell>
        <mxCell id="YQubhWQlvwatm8_Td63F-41" value="SEMETER" style="ellipse;whiteSpace=wrap;html=1;align=center;" vertex="1" parent="1">
          <mxGeometry x="580" y="380" width="100" height="40" as="geometry" />
        </mxCell>
        <mxCell id="YQubhWQlvwatm8_Td63F-42" value="DEPT" style="ellipse;whiteSpace=wrap;html=1;align=center;" vertex="1" parent="1">
          <mxGeometry x="470" y="410" width="100" height="40" as="geometry" />
        </mxCell>
        <mxCell id="YQubhWQlvwatm8_Td63F-44" value="" style="endArrow=none;html=1;rounded=0;exitX=0.4;exitY=0;exitDx=0;exitDy=0;exitPerimeter=0;entryX=1;entryY=1;entryDx=0;entryDy=0;" edge="1" parent="1" source="YQubhWQlvwatm8_Td63F-42" target="YQubhWQlvwatm8_Td63F-9">
          <mxGeometry width="50" height="50" relative="1" as="geometry">
            <mxPoint x="540" y="360" as="sourcePoint" />
            <mxPoint x="590" y="310" as="targetPoint" />
          </mxGeometry>
        </mxCell>
        <mxCell id="YQubhWQlvwatm8_Td63F-45" value="" style="endArrow=none;html=1;rounded=0;exitX=0.333;exitY=-0.033;exitDx=0;exitDy=0;exitPerimeter=0;entryX=1;entryY=0.5;entryDx=0;entryDy=0;" edge="1" parent="1" source="YQubhWQlvwatm8_Td63F-41" target="YQubhWQlvwatm8_Td63F-9">
          <mxGeometry width="50" height="50" relative="1" as="geometry">
            <mxPoint x="640" y="310" as="sourcePoint" />
            <mxPoint x="690" y="260" as="targetPoint" />
          </mxGeometry>
        </mxCell>
        <mxCell id="YQubhWQlvwatm8_Td63F-47" value="creates" style="shape=rhombus;perimeter=rhombusPerimeter;whiteSpace=wrap;html=1;align=center;" vertex="1" parent="1">
          <mxGeometry x="790" y="90" width="120" height="60" as="geometry" />
        </mxCell>
        <mxCell id="YQubhWQlvwatm8_Td63F-48" value="" style="endArrow=none;html=1;rounded=0;entryX=0;entryY=0.5;entryDx=0;entryDy=0;" edge="1" parent="1" target="YQubhWQlvwatm8_Td63F-47">
          <mxGeometry width="50" height="50" relative="1" as="geometry">
            <mxPoint x="420" y="120" as="sourcePoint" />
            <mxPoint x="660" y="95" as="targetPoint" />
          </mxGeometry>
        </mxCell>
        <mxCell id="YQubhWQlvwatm8_Td63F-52" value="PROJECT_ID" style="ellipse;whiteSpace=wrap;html=1;align=center;fontStyle=4;" vertex="1" parent="1">
          <mxGeometry x="1070" y="290" width="100" height="40" as="geometry" />
        </mxCell>
        <mxCell id="YQubhWQlvwatm8_Td63F-53" value="" style="endArrow=none;html=1;rounded=0;entryX=0;entryY=1;entryDx=0;entryDy=0;exitX=0.587;exitY=-0.033;exitDx=0;exitDy=0;exitPerimeter=0;" edge="1" parent="1" source="YQubhWQlvwatm8_Td63F-52" target="YQubhWQlvwatm8_Td63F-12">
          <mxGeometry width="50" height="50" relative="1" as="geometry">
            <mxPoint x="1160" y="240" as="sourcePoint" />
            <mxPoint x="1210" y="190" as="targetPoint" />
          </mxGeometry>
        </mxCell>
        <mxCell id="YQubhWQlvwatm8_Td63F-54" value="" style="endArrow=none;html=1;rounded=0;entryX=0.5;entryY=1;entryDx=0;entryDy=0;exitX=0.62;exitY=0.05;exitDx=0;exitDy=0;exitPerimeter=0;" edge="1" parent="1" source="YQubhWQlvwatm8_Td63F-39" target="YQubhWQlvwatm8_Td63F-12">
          <mxGeometry width="50" height="50" relative="1" as="geometry">
            <mxPoint x="1270" y="310" as="sourcePoint" />
            <mxPoint x="1320" y="260" as="targetPoint" />
          </mxGeometry>
        </mxCell>
        <mxCell id="YQubhWQlvwatm8_Td63F-57" value="creation_date" style="ellipse;whiteSpace=wrap;html=1;align=center;" vertex="1" parent="1">
          <mxGeometry x="1450" y="310" width="100" height="40" as="geometry" />
        </mxCell>
        <mxCell id="YQubhWQlvwatm8_Td63F-58" value="SRN" style="ellipse;whiteSpace=wrap;html=1;align=center;fontStyle=4;" vertex="1" parent="1">
          <mxGeometry x="240" y="-350" width="100" height="50" as="geometry" />
        </mxCell>
        <mxCell id="YQubhWQlvwatm8_Td63F-62" value="work on" style="shape=rhombus;perimeter=rhombusPerimeter;whiteSpace=wrap;html=1;align=center;" vertex="1" parent="1">
          <mxGeometry x="840" y="-380" width="120" height="60" as="geometry" />
        </mxCell>
        <mxCell id="YQubhWQlvwatm8_Td63F-64" value="" style="endArrow=none;html=1;rounded=0;exitX=0.5;exitY=0;exitDx=0;exitDy=0;entryX=1;entryY=0.5;entryDx=0;entryDy=0;" edge="1" parent="1" source="YQubhWQlvwatm8_Td63F-12" target="YQubhWQlvwatm8_Td63F-62">
          <mxGeometry width="50" height="50" relative="1" as="geometry">
            <mxPoint x="1340" y="100" as="sourcePoint" />
            <mxPoint x="1250" y="-320" as="targetPoint" />
          </mxGeometry>
        </mxCell>
        <mxCell id="YQubhWQlvwatm8_Td63F-67" value="" style="endArrow=none;html=1;rounded=0;entryX=0;entryY=1;entryDx=0;entryDy=0;exitX=0.5;exitY=0;exitDx=0;exitDy=0;" edge="1" parent="1" source="YQubhWQlvwatm8_Td63F-58" target="YQubhWQlvwatm8_Td63F-11">
          <mxGeometry width="50" height="50" relative="1" as="geometry">
            <mxPoint x="890" y="-150" as="sourcePoint" />
            <mxPoint x="940" y="-200" as="targetPoint" />
          </mxGeometry>
        </mxCell>
        <mxCell id="YQubhWQlvwatm8_Td63F-68" value="gets premissions or rights from&amp;nbsp;" style="shape=rhombus;perimeter=rhombusPerimeter;whiteSpace=wrap;html=1;align=center;" vertex="1" parent="1">
          <mxGeometry x="340" y="-200" width="120" height="60" as="geometry" />
        </mxCell>
        <mxCell id="YQubhWQlvwatm8_Td63F-74" value="" style="endArrow=none;html=1;rounded=0;entryX=0.5;entryY=1;entryDx=0;entryDy=0;exitX=0.5;exitY=0;exitDx=0;exitDy=0;" edge="1" parent="1" source="YQubhWQlvwatm8_Td63F-68" target="YQubhWQlvwatm8_Td63F-11">
          <mxGeometry width="50" height="50" relative="1" as="geometry">
            <mxPoint x="960" y="-200" as="sourcePoint" />
            <mxPoint x="1010" y="-250" as="targetPoint" />
          </mxGeometry>
        </mxCell>
        <mxCell id="YQubhWQlvwatm8_Td63F-77" value="" style="endArrow=none;html=1;rounded=0;exitX=0.58;exitY=-0.117;exitDx=0;exitDy=0;exitPerimeter=0;entryX=0.5;entryY=1;entryDx=0;entryDy=0;" edge="1" parent="1" source="YQubhWQlvwatm8_Td63F-9" target="YQubhWQlvwatm8_Td63F-68">
          <mxGeometry width="50" height="50" relative="1" as="geometry">
            <mxPoint x="890" y="-280" as="sourcePoint" />
            <mxPoint x="940" y="-330" as="targetPoint" />
          </mxGeometry>
        </mxCell>
        <mxCell id="YQubhWQlvwatm8_Td63F-78" value="" style="endArrow=none;html=1;rounded=0;entryX=1;entryY=1;entryDx=0;entryDy=0;exitX=0.5;exitY=0;exitDx=0;exitDy=0;" edge="1" parent="1" source="YQubhWQlvwatm8_Td63F-57" target="YQubhWQlvwatm8_Td63F-12">
          <mxGeometry width="50" height="50" relative="1" as="geometry">
            <mxPoint x="890" y="120" as="sourcePoint" />
            <mxPoint x="940" y="70" as="targetPoint" />
          </mxGeometry>
        </mxCell>
        <mxCell id="YQubhWQlvwatm8_Td63F-81" value="GROUP_ID" style="ellipse;whiteSpace=wrap;html=1;align=center;fontStyle=4;" vertex="1" parent="1">
          <mxGeometry x="650" y="-50" width="100" height="40" as="geometry" />
        </mxCell>
        <mxCell id="YQubhWQlvwatm8_Td63F-82" value="GROUP_NAME" style="ellipse;whiteSpace=wrap;html=1;align=center;" vertex="1" parent="1">
          <mxGeometry x="810" y="-50" width="100" height="40" as="geometry" />
        </mxCell>
        <mxCell id="YQubhWQlvwatm8_Td63F-83" value="CREATION_DATE" style="ellipse;whiteSpace=wrap;html=1;align=center;" vertex="1" parent="1">
          <mxGeometry x="970" y="-50" width="100" height="40" as="geometry" />
        </mxCell>
        <mxCell id="YQubhWQlvwatm8_Td63F-84" value="" style="endArrow=none;html=1;rounded=0;entryX=0.5;entryY=1;entryDx=0;entryDy=0;exitX=0.5;exitY=0;exitDx=0;exitDy=0;" edge="1" parent="1" source="YQubhWQlvwatm8_Td63F-82" target="YQubhWQlvwatm8_Td63F-15">
          <mxGeometry width="50" height="50" relative="1" as="geometry">
            <mxPoint x="890" y="660" as="sourcePoint" />
            <mxPoint x="940" y="610" as="targetPoint" />
          </mxGeometry>
        </mxCell>
        <mxCell id="YQubhWQlvwatm8_Td63F-85" value="" style="endArrow=none;html=1;rounded=0;entryX=1;entryY=1;entryDx=0;entryDy=0;exitX=0.5;exitY=0;exitDx=0;exitDy=0;" edge="1" parent="1" source="YQubhWQlvwatm8_Td63F-83" target="YQubhWQlvwatm8_Td63F-15">
          <mxGeometry width="50" height="50" relative="1" as="geometry">
            <mxPoint x="990" y="660" as="sourcePoint" />
            <mxPoint x="1040" y="610" as="targetPoint" />
          </mxGeometry>
        </mxCell>
        <mxCell id="YQubhWQlvwatm8_Td63F-86" value="" style="endArrow=none;html=1;rounded=0;entryX=0;entryY=1;entryDx=0;entryDy=0;exitX=0.5;exitY=0;exitDx=0;exitDy=0;" edge="1" parent="1" source="YQubhWQlvwatm8_Td63F-81" target="YQubhWQlvwatm8_Td63F-15">
          <mxGeometry width="50" height="50" relative="1" as="geometry">
            <mxPoint x="720" y="630" as="sourcePoint" />
            <mxPoint x="770" y="580" as="targetPoint" />
          </mxGeometry>
        </mxCell>
        <mxCell id="YQubhWQlvwatm8_Td63F-88" value="creates" style="shape=rhombus;perimeter=rhombusPerimeter;whiteSpace=wrap;html=1;align=center;direction=west;rotation=0;" vertex="1" parent="1">
          <mxGeometry x="440" y="-100" width="120" height="60" as="geometry" />
        </mxCell>
        <mxCell id="YQubhWQlvwatm8_Td63F-89" value="" style="endArrow=none;html=1;rounded=0;entryX=1;entryY=0.5;entryDx=0;entryDy=0;exitX=1;exitY=0;exitDx=0;exitDy=0;" edge="1" parent="1" source="YQubhWQlvwatm8_Td63F-9" target="YQubhWQlvwatm8_Td63F-88">
          <mxGeometry width="50" height="50" relative="1" as="geometry">
            <mxPoint x="430" y="120" as="sourcePoint" />
            <mxPoint x="940" y="340" as="targetPoint" />
          </mxGeometry>
        </mxCell>
        <mxCell id="YQubhWQlvwatm8_Td63F-91" value="join" style="shape=rhombus;perimeter=rhombusPerimeter;whiteSpace=wrap;html=1;align=center;" vertex="1" parent="1">
          <mxGeometry x="560" y="-370" width="120" height="60" as="geometry" />
        </mxCell>
        <mxCell id="YQubhWQlvwatm8_Td63F-92" value="" style="endArrow=none;html=1;rounded=0;entryX=1;entryY=0.5;entryDx=0;entryDy=0;exitX=0.5;exitY=0;exitDx=0;exitDy=0;" edge="1" parent="1" source="YQubhWQlvwatm8_Td63F-15" target="YQubhWQlvwatm8_Td63F-91">
          <mxGeometry width="50" height="50" relative="1" as="geometry">
            <mxPoint x="890" y="-10" as="sourcePoint" />
            <mxPoint x="940" y="-60" as="targetPoint" />
          </mxGeometry>
        </mxCell>
        <mxCell id="YQubhWQlvwatm8_Td63F-97" value="" style="shape=link;html=1;rounded=0;entryX=0;entryY=0.5;entryDx=0;entryDy=0;exitX=1;exitY=0.5;exitDx=0;exitDy=0;" edge="1" parent="1" source="YQubhWQlvwatm8_Td63F-47" target="YQubhWQlvwatm8_Td63F-12">
          <mxGeometry relative="1" as="geometry">
            <mxPoint x="830" y="-170" as="sourcePoint" />
            <mxPoint x="990" y="-170" as="targetPoint" />
          </mxGeometry>
        </mxCell>
        <mxCell id="YQubhWQlvwatm8_Td63F-98" value="M" style="resizable=0;html=1;whiteSpace=wrap;align=left;verticalAlign=bottom;" connectable="0" vertex="1" parent="YQubhWQlvwatm8_Td63F-97">
          <mxGeometry x="-1" relative="1" as="geometry" />
        </mxCell>
        <mxCell id="YQubhWQlvwatm8_Td63F-99" value="N" style="resizable=0;html=1;whiteSpace=wrap;align=right;verticalAlign=bottom;" connectable="0" vertex="1" parent="YQubhWQlvwatm8_Td63F-97">
          <mxGeometry x="1" relative="1" as="geometry" />
        </mxCell>
        <mxCell id="YQubhWQlvwatm8_Td63F-100" value="" style="shape=link;html=1;rounded=0;entryX=0;entryY=0.5;entryDx=0;entryDy=0;exitX=0;exitY=0.5;exitDx=0;exitDy=0;" edge="1" parent="1" source="YQubhWQlvwatm8_Td63F-88" target="YQubhWQlvwatm8_Td63F-15">
          <mxGeometry relative="1" as="geometry">
            <mxPoint x="830" y="-40" as="sourcePoint" />
            <mxPoint x="990" y="-40" as="targetPoint" />
          </mxGeometry>
        </mxCell>
        <mxCell id="YQubhWQlvwatm8_Td63F-101" value="M" style="resizable=0;html=1;whiteSpace=wrap;align=left;verticalAlign=bottom;" connectable="0" vertex="1" parent="YQubhWQlvwatm8_Td63F-100">
          <mxGeometry x="-1" relative="1" as="geometry" />
        </mxCell>
        <mxCell id="YQubhWQlvwatm8_Td63F-102" value="N" style="resizable=0;html=1;whiteSpace=wrap;align=right;verticalAlign=bottom;" connectable="0" vertex="1" parent="YQubhWQlvwatm8_Td63F-100">
          <mxGeometry x="1" relative="1" as="geometry" />
        </mxCell>
        <mxCell id="YQubhWQlvwatm8_Td63F-105" value="url" style="ellipse;whiteSpace=wrap;html=1;align=center;" vertex="1" parent="1">
          <mxGeometry x="1440" y="-310" width="100" height="40" as="geometry" />
        </mxCell>
        <mxCell id="YQubhWQlvwatm8_Td63F-106" value="discription" style="ellipse;whiteSpace=wrap;html=1;align=center;" vertex="1" parent="1">
          <mxGeometry x="1125" y="-290" width="100" height="40" as="geometry" />
        </mxCell>
        <mxCell id="YQubhWQlvwatm8_Td63F-107" value="name" style="ellipse;whiteSpace=wrap;html=1;align=center;" vertex="1" parent="1">
          <mxGeometry x="1050" y="-350" width="100" height="30" as="geometry" />
        </mxCell>
        <mxCell id="YQubhWQlvwatm8_Td63F-111" value="" style="endArrow=none;html=1;rounded=0;entryX=1;entryY=1;entryDx=0;entryDy=0;" edge="1" parent="1" source="YQubhWQlvwatm8_Td63F-119" target="YQubhWQlvwatm8_Td63F-14">
          <mxGeometry width="50" height="50" relative="1" as="geometry">
            <mxPoint x="890" y="-180" as="sourcePoint" />
            <mxPoint x="940" y="-230" as="targetPoint" />
          </mxGeometry>
        </mxCell>
        <mxCell id="YQubhWQlvwatm8_Td63F-112" value="" style="endArrow=none;html=1;rounded=0;entryX=0.75;entryY=1;entryDx=0;entryDy=0;exitX=0;exitY=0.5;exitDx=0;exitDy=0;" edge="1" parent="1" source="YQubhWQlvwatm8_Td63F-120" target="YQubhWQlvwatm8_Td63F-14">
          <mxGeometry width="50" height="50" relative="1" as="geometry">
            <mxPoint x="1534.6446609406726" y="-352.6776695296637" as="sourcePoint" />
            <mxPoint x="940" y="-230" as="targetPoint" />
          </mxGeometry>
        </mxCell>
        <mxCell id="YQubhWQlvwatm8_Td63F-113" value="" style="endArrow=none;html=1;rounded=0;entryX=0.5;entryY=1;entryDx=0;entryDy=0;exitX=0.2;exitY=0;exitDx=0;exitDy=0;exitPerimeter=0;" edge="1" parent="1" source="YQubhWQlvwatm8_Td63F-105" target="YQubhWQlvwatm8_Td63F-14">
          <mxGeometry width="50" height="50" relative="1" as="geometry">
            <mxPoint x="890" y="-180" as="sourcePoint" />
            <mxPoint x="940" y="-230" as="targetPoint" />
          </mxGeometry>
        </mxCell>
        <mxCell id="YQubhWQlvwatm8_Td63F-114" value="" style="endArrow=none;html=1;rounded=0;entryX=0.25;entryY=1;entryDx=0;entryDy=0;exitX=0.5;exitY=0;exitDx=0;exitDy=0;" edge="1" parent="1" source="YQubhWQlvwatm8_Td63F-106" target="YQubhWQlvwatm8_Td63F-14">
          <mxGeometry width="50" height="50" relative="1" as="geometry">
            <mxPoint x="890" y="-180" as="sourcePoint" />
            <mxPoint x="940" y="-230" as="targetPoint" />
          </mxGeometry>
        </mxCell>
        <mxCell id="YQubhWQlvwatm8_Td63F-115" value="" style="endArrow=none;html=1;rounded=0;entryX=0;entryY=1;entryDx=0;entryDy=0;exitX=0.5;exitY=0;exitDx=0;exitDy=0;" edge="1" parent="1" source="YQubhWQlvwatm8_Td63F-107" target="YQubhWQlvwatm8_Td63F-14">
          <mxGeometry width="50" height="50" relative="1" as="geometry">
            <mxPoint x="890" y="-180" as="sourcePoint" />
            <mxPoint x="940" y="-230" as="targetPoint" />
          </mxGeometry>
        </mxCell>
        <mxCell id="YQubhWQlvwatm8_Td63F-116" value="required&amp;nbsp; for" style="shape=rhombus;perimeter=rhombusPerimeter;whiteSpace=wrap;html=1;align=center;" vertex="1" parent="1">
          <mxGeometry x="1230" y="-200" width="120" height="60" as="geometry" />
        </mxCell>
        <mxCell id="YQubhWQlvwatm8_Td63F-117" value="" style="endArrow=none;html=1;rounded=0;entryX=0.5;entryY=1;entryDx=0;entryDy=0;exitX=0.5;exitY=0;exitDx=0;exitDy=0;" edge="1" parent="1" source="YQubhWQlvwatm8_Td63F-116" target="YQubhWQlvwatm8_Td63F-14">
          <mxGeometry width="50" height="50" relative="1" as="geometry">
            <mxPoint x="890" y="-180" as="sourcePoint" />
            <mxPoint x="940" y="-230" as="targetPoint" />
          </mxGeometry>
        </mxCell>
        <mxCell id="YQubhWQlvwatm8_Td63F-118" value="" style="endArrow=none;html=1;rounded=0;entryX=0.5;entryY=1;entryDx=0;entryDy=0;exitX=0.5;exitY=0;exitDx=0;exitDy=0;" edge="1" parent="1" source="YQubhWQlvwatm8_Td63F-12" target="YQubhWQlvwatm8_Td63F-116">
          <mxGeometry width="50" height="50" relative="1" as="geometry">
            <mxPoint x="890" y="-180" as="sourcePoint" />
            <mxPoint x="940" y="-230" as="targetPoint" />
          </mxGeometry>
        </mxCell>
        <mxCell id="YQubhWQlvwatm8_Td63F-119" value="resource_id" style="ellipse;whiteSpace=wrap;html=1;align=center;fontStyle=4;" vertex="1" parent="1">
          <mxGeometry x="1560" y="-450" width="100" height="40" as="geometry" />
        </mxCell>
        <mxCell id="YQubhWQlvwatm8_Td63F-120" value="project_id" style="ellipse;whiteSpace=wrap;html=1;align=center;" vertex="1" parent="1">
          <mxGeometry x="1530" y="-360" width="100" height="40" as="geometry" />
        </mxCell>
        <mxCell id="YQubhWQlvwatm8_Td63F-132" value="" style="shape=link;html=1;rounded=0;entryX=0;entryY=0.5;entryDx=0;entryDy=0;entryPerimeter=0;exitX=1;exitY=0.5;exitDx=0;exitDy=0;" edge="1" parent="1" source="YQubhWQlvwatm8_Td63F-11" target="YQubhWQlvwatm8_Td63F-62">
          <mxGeometry relative="1" as="geometry">
            <mxPoint x="530" y="-510" as="sourcePoint" />
            <mxPoint x="990" y="-210" as="targetPoint" />
          </mxGeometry>
        </mxCell>
        <mxCell id="YQubhWQlvwatm8_Td63F-133" value="M" style="resizable=0;html=1;whiteSpace=wrap;align=left;verticalAlign=bottom;" connectable="0" vertex="1" parent="YQubhWQlvwatm8_Td63F-132">
          <mxGeometry x="-1" relative="1" as="geometry" />
        </mxCell>
        <mxCell id="YQubhWQlvwatm8_Td63F-134" value="N" style="resizable=0;html=1;whiteSpace=wrap;align=right;verticalAlign=bottom;" connectable="0" vertex="1" parent="YQubhWQlvwatm8_Td63F-132">
          <mxGeometry x="1" relative="1" as="geometry" />
        </mxCell>
        <mxCell id="YQubhWQlvwatm8_Td63F-135" value="" style="shape=link;html=1;rounded=0;exitX=1;exitY=1;exitDx=0;exitDy=0;entryX=0;entryY=0.5;entryDx=0;entryDy=0;" edge="1" parent="1" source="YQubhWQlvwatm8_Td63F-11" target="YQubhWQlvwatm8_Td63F-91">
          <mxGeometry relative="1" as="geometry">
            <mxPoint x="830" y="-210" as="sourcePoint" />
            <mxPoint x="990" y="-210" as="targetPoint" />
          </mxGeometry>
        </mxCell>
        <mxCell id="YQubhWQlvwatm8_Td63F-136" value="M" style="resizable=0;html=1;whiteSpace=wrap;align=left;verticalAlign=bottom;" connectable="0" vertex="1" parent="YQubhWQlvwatm8_Td63F-135">
          <mxGeometry x="-1" relative="1" as="geometry" />
        </mxCell>
        <mxCell id="YQubhWQlvwatm8_Td63F-137" value="N" style="resizable=0;html=1;whiteSpace=wrap;align=right;verticalAlign=bottom;" connectable="0" vertex="1" parent="YQubhWQlvwatm8_Td63F-135">
          <mxGeometry x="1" relative="1" as="geometry" />
        </mxCell>
        <mxCell id="YQubhWQlvwatm8_Td63F-177" value="ROLE" style="ellipse;whiteSpace=wrap;html=1;align=center;" vertex="1" parent="1">
          <mxGeometry x="440" y="-310" width="100" height="40" as="geometry" />
        </mxCell>
        <mxCell id="YQubhWQlvwatm8_Td63F-178" value="" style="endArrow=none;html=1;rounded=0;exitX=0.5;exitY=0;exitDx=0;exitDy=0;entryX=0.75;entryY=1;entryDx=0;entryDy=0;" edge="1" parent="1" source="YQubhWQlvwatm8_Td63F-177" target="YQubhWQlvwatm8_Td63F-11">
          <mxGeometry width="50" height="50" relative="1" as="geometry">
            <mxPoint x="890" y="-310" as="sourcePoint" />
            <mxPoint x="940" y="-360" as="targetPoint" />
          </mxGeometry>
        </mxCell>
      </root>
    </mxGraphModel>
  </diagram>
</mxfile>
